<svg xmlns="http://www.w3.org/2000/svg" width="800" height="800" viewBox="0 0 800 800"><defs><linearGradient id="grd1" x1="400.616" x2="400.616" y1="9.168" y2="779.6" gradientUnits="userSpaceOnUse"><stop offset="0" stop-color="#1d0024"/><stop offset="1" stop-color="#100014"/></linearGradient><clipPath id="cp1" clipPathUnits="userSpaceOnUse"><path d="M400.62 779.6C187.59 779.6 15.4 607.41 15.4 394.38C15.4 181.36 187.59 9.17 400.62 9.17C613.64 9.17 785.83 181.36 785.83 394.38C785.83 607.41 613.64 779.6 400.62 779.6Z"/></clipPath><linearGradient id="grd2" x1="388.089" x2="388.089" y1="135.153" y2="609.549" gradientUnits="userSpaceOnUse"><stop offset="0" stop-color="#ffd4b3"/><stop offset="1" stop-color="#ffdcc2"/></linearGradient><clipPath id="cp2" clipPathUnits="userSpaceOnUse"><path d="M318.44 493.98L318.44 495.09C318.13 518.51 298.44 536.12 259.37 547.91C306.45 582.16 353.53 609.55 400.62 609.55C447.7 609.55 494.78 582.16 541.86 547.91C503.05 536.1 483.37 518.47 482.81 495.02C482.82 490.84 482.84 484.9 482.87 473.75C482.87 471.98 482.88 470.17 482.88 468.32C485.69 468.71 485.46 468.46 482.88 467.75C482.96 438.42 483.08 398.99 483.26 358.91C520.07 311.21 506.55 255.27 495.01 256.67C480.86 258.38 358.35 142.13 334.85 136.18C311.36 130.23 251.67 149.45 241.39 203.06C231.12 256.67 226.83 391.8 265.79 445.75C276.88 461.1 294.34 467.1 318.17 463.76C318.21 474.98 318.27 481.28 318.44 493.98L318.44 493.98Z"/></clipPath><linearGradient id="grd3" x1="373.49" x2="373.49" y1="405.591" y2="94.922" gradientUnits="userSpaceOnUse"><stop offset="0" stop-color="#e6864e"/><stop offset="1" stop-color="#e67240"/></linearGradient><linearGradient id="grd4" x1="400.616" x2="400.616" y1="790.663" y2="530.493" gradientUnits="userSpaceOnUse"><stop offset="0" stop-color="#e6864e"/><stop offset="1" stop-color="#e67240"/></linearGradient><clipPath id="cp3" clipPathUnits="userSpaceOnUse"><path d="M670.27 626.3C694.72 676.01 708.79 790.66 708.79 790.66L92.44 790.66C92.44 790.66 106.52 676 130.97 626.3C155.41 576.61 298.15 530.51 298.15 530.51C325.66 587 476.65 587 503.01 530.49C503.01 530.49 645.82 576.59 670.27 626.3Z"/></clipPath><linearGradient id="grd5" x1="400.616" x2="400.616" y1="615.241" y2="738.51" gradientUnits="userSpaceOnUse"><stop offset="0" stop-color="#f7b186"/><stop offset="1" stop-color="#ffc299"/></linearGradient></defs><style>.shp0{fill:url(#grd1)}.shp1{fill:url(#grd2)}.shp2{fill:#ffbe94}.shp3{fill:url(#grd3)}.shp4{fill:url(#grd4)}.shp5{fill:url(#grd5)}</style><g id="User 07a"><path id="Mask" d="M400.62 779.6C187.59 779.6 15.4 607.41 15.4 394.38C15.4 181.36 187.59 9.17 400.62 9.17C613.64 9.17 785.83 181.36 785.83 394.38C785.83 607.41 613.64 779.6 400.62 779.6Z" class="shp0"/><g id="Mask by Mask" clip-path="url(#cp1)"><g id="Group 10"><g id="Group 11"><g id="Group 11"><g id="Group 2"><g id="Group 14"><g id="Path 48"><path id="Combined Shape" d="M318.44 493.98L318.44 495.09C318.13 518.51 298.44 536.12 259.37 547.91C306.45 582.16 353.53 609.55 400.62 609.55C447.7 609.55 494.78 582.16 541.86 547.91C503.05 536.1 483.37 518.47 482.81 495.02C482.82 490.84 482.84 484.9 482.87 473.75C482.87 471.98 482.88 470.17 482.88 468.32C485.69 468.71 485.46 468.46 482.88 467.75C482.96 438.42 483.08 398.99 483.26 358.91C520.07 311.21 506.55 255.27 495.01 256.67C480.86 258.38 358.35 142.13 334.85 136.18C311.36 130.23 251.67 149.45 241.39 203.06C231.12 256.67 226.83 391.8 265.79 445.75C276.88 461.1 294.34 467.1 318.17 463.76C318.21 474.98 318.27 481.28 318.44 493.98L318.44 493.98Z" class="shp1"/><g id="Mask by Combined Shape" clip-path="url(#cp2)"><path id="Path 48" d="M318.44 463.72C374.94 457.3 410.89 432.91 410.89 432.91C410.89 432.91 372.01 484.57 318.44 494.54L318.44 463.72Z" class="shp2"/></g></g><path id="Path 22" d="M502.06 359.71C519.75 317.16 590.66 230.5 529.54 176.57C508.99 76.41 395.48 87.49 319.72 110.61C268.8 126.14 230.35 156.83 222.13 133.72C170.77 176.57 196.49 218.47 230.35 230.5C261.08 241.41 313.05 252.32 401.4 242.05C417.19 240.22 413.88 288.56 422.32 293.78C434.97 301.62 444.79 252.32 479.48 267.13C514.17 281.93 493.58 350.56 456.35 350.56C443.51 350.56 437.09 385.87 471.76 402.56C496.92 414.93 490.56 387.36 502.06 359.71Z" class="shp3"/></g></g></g></g></g><g id="Group 21"><path id="Combined Shape" d="M670.27 626.3C694.72 676.01 708.79 790.66 708.79 790.66L92.44 790.66C92.44 790.66 106.52 676 130.97 626.3C155.41 576.61 298.15 530.51 298.15 530.51C325.66 587 476.65 587 503.01 530.49C503.01 530.49 645.82 576.59 670.27 626.3Z" class="shp4"/><g id="Mask by Combined Shape" clip-path="url(#cp3)"><path id="Combined Shape" d="M66.76 615.24L734.47 615.24L734.47 635.79L66.76 635.79L66.76 615.24ZM66.76 666.6L734.47 666.6L734.47 687.15L66.76 687.15L66.76 666.6ZM66.76 717.97L734.47 717.97L734.47 738.51L66.76 738.51L66.76 717.97Z" class="shp5"/></g></g></g></g></svg>